<?xml version="1.0" standalone="no"?>
<!DOCTYPE svg PUBLIC "-//W3C//DTD SVG 20010904//EN"
 "http://www.w3.org/TR/2001/REC-SVG-20010904/DTD/svg10.dtd">
<svg version="1.0" xmlns="http://www.w3.org/2000/svg"
 width="676.000000pt" height="1080.000000pt" viewBox="0 0 676.000000 1080.000000"
 preserveAspectRatio="xMidYMid meet">
<metadata>
Created by potrace 1.16, written by Peter Selinger 2001-2019
</metadata>
<g transform="translate(0.000000,1080.000000) scale(0.100000,-0.100000)"
fill="#000000" stroke="none">
<path d="M3160 8770 c-664 -44 -1305 -285 -1830 -687 -315 -241 -611 -567
-818 -901 -209 -336 -354 -698 -437 -1088 -173 -824 -31 -1702 394 -2423 112
-190 281 -416 431 -576 287 -307 613 -551 974 -730 358 -177 680 -275 1086
-332 178 -24 664 -25 840 0 482 67 911 215 1300 447 100 60 234 148 269 176 9
7 39 30 67 51 199 147 472 421 636 638 362 480 582 1025 665 1650 23 179 23
606 0 795 -82 653 -332 1243 -740 1743 -111 136 -329 358 -452 459 -513 425
-1117 684 -1775 762 -160 19 -450 27 -610 16z m460 -320 c406 -36 777 -139
1118 -310 75 -38 160 -83 187 -99 28 -17 64 -38 80 -47 56 -31 294 -207 370
-273 70 -62 289 -284 346 -351 354 -419 609 -979 683 -1500 51 -352 45 -740
-15 -1050 -186 -959 -811 -1773 -1684 -2191 -260 -124 -493 -199 -805 -259
-395 -75 -954 -46 -1345 70 -38 12 -92 27 -119 35 -153 44 -440 174 -618 281
-936 560 -1498 1553 -1498 2647 0 510 134 1031 379 1472 93 167 258 404 365
525 92 103 308 311 401 385 240 193 559 375 838 480 406 152 899 221 1317 185z"/>
<path d="M3110 8343 c-653 -67 -1234 -321 -1700 -743 -82 -74 -218 -212 -271
-275 -19 -22 -37 -42 -40 -45 -14 -13 -132 -174 -186 -255 -576 -869 -649
-1990 -190 -2930 357 -732 990 -1279 1762 -1525 175 -56 314 -86 570 -122 55
-8 185 -13 335 -12 199 0 273 5 395 23 656 97 1225 380 1680 836 466 466 752
1042 846 1705 26 183 31 561 10 720 -81 610 -291 1107 -654 1550 -82 100 -303
323 -400 403 -328 275 -748 488 -1163 591 -259 64 -455 87 -744 84 -118 0
-231 -3 -250 -5z m-172 -413 c81 -9 238 -56 264 -79 4 -4 -27 -41 -70 -84
l-77 -77 -55 15 c-71 19 -200 19 -273 0 -244 -63 -413 -297 -395 -543 7 -86
39 -182 85 -252 20 -30 245 -264 500 -520 l463 -465 450 450 c248 248 471 478
497 513 151 208 131 492 -50 674 -69 70 -169 128 -256 148 -85 20 -232 8 -311
-24 -68 -28 -157 -87 -166 -111 -4 -9 89 -109 251 -271 l257 -257 -336 -336
-336 -336 -335 335 -336 336 187 188 187 188 75 -75 75 -75 -111 -114 -112
-113 185 -185 185 -185 185 185 185 185 -255 255 c-140 140 -255 261 -255 268
0 15 125 141 201 203 154 126 337 179 540 158 475 -49 774 -527 616 -984 -49
-145 -67 -164 -659 -760 l-558 -560 -547 548 c-610 610 -625 627 -684 817 -33
105 -34 312 -2 412 68 209 204 369 388 458 91 44 142 59 235 70 36 4 67 8 70
9 3 0 47 -4 98 -9z m520 -813 l72 -72 -75 -75 -75 -74 -75 74 -75 75 72 72
c40 40 75 73 78 73 3 0 38 -33 78 -73z m-1628 -62 l0 -105 -105 0 -105 0 0
105 0 105 105 0 105 0 0 -105z m3310 0 l0 -105 -105 0 -105 0 0 105 0 105 105
0 105 0 0 -105z m-3398 -416 c70 -15 171 -59 243 -104 41 -25 236 -213 607
-584 301 -300 548 -551 548 -556 0 -18 -1093 -1101 -1150 -1140 -116 -78 -225
-114 -371 -122 -217 -12 -410 63 -564 220 -203 207 -265 494 -168 772 38 107
37 106 126 17 l77 -77 -16 -50 c-23 -75 -20 -225 5 -306 99 -315 469 -459 761
-297 40 23 181 157 528 502 259 259 472 474 472 479 0 5 -213 222 -472 481
-504 503 -521 517 -652 552 -68 18 -198 18 -271 -1 -136 -36 -262 -136 -327
-262 -49 -92 -62 -159 -56 -285 4 -97 7 -110 45 -189 23 -46 55 -97 72 -114
l32 -29 259 259 260 260 335 -336 336 -335 -336 -337 -335 -338 -185 184
c-102 102 -185 187 -185 190 0 5 83 91 122 125 l26 24 106 -106 c59 -58 110
-106 114 -106 4 0 89 82 190 183 l182 182 -185 185 -185 185 -258 -258 c-141
-141 -260 -257 -264 -257 -11 0 -159 149 -210 212 -158 194 -200 476 -106 721
99 258 325 433 608 470 48 7 182 -1 242 -14z m3600 0 c236 -51 438 -227 527
-459 69 -181 66 -385 -8 -555 -12 -27 -24 -52 -27 -54 -2 -3 -40 30 -83 73
l-79 78 15 57 c19 70 20 189 3 261 -42 179 -196 339 -374 386 -67 18 -198 18
-269 -1 -139 -36 -146 -42 -654 -551 -260 -260 -473 -477 -473 -481 0 -17 938
-943 985 -973 153 -95 373 -99 532 -9 118 67 212 186 248 312 24 84 22 224 -4
308 -20 64 -82 171 -113 197 -13 11 -52 -24 -276 -248 l-261 -261 -336 337
-337 337 336 336 336 336 187 -187 188 -188 -70 -70 c-38 -38 -74 -70 -80 -70
-5 0 -58 48 -117 107 l-108 108 -180 -180 c-99 -99 -180 -184 -180 -190 0 -11
343 -358 359 -363 5 -2 125 112 266 254 l257 257 100 -99 c123 -123 182 -211
225 -335 72 -208 48 -436 -64 -622 -47 -79 -170 -202 -248 -249 -242 -147
-543 -143 -784 9 -56 35 -1161 1127 -1161 1147 0 16 1050 1064 1115 1113 174
131 390 178 607 132z m-3540 -1166 c38 -37 68 -72 68 -78 0 -16 -138 -150
-147 -142 -4 4 -38 37 -75 74 l-68 68 72 72 c40 40 75 73 77 73 3 0 36 -30 73
-67z m3305 -5 l72 -73 -70 -72 c-38 -40 -73 -73 -77 -73 -3 0 -39 33 -79 72
l-73 73 72 72 c40 40 75 73 78 73 3 0 38 -33 77 -72z m-1175 -860 c583 -586
611 -618 668 -775 44 -123 52 -276 21 -408 -36 -148 -89 -244 -201 -356 -78
-78 -110 -102 -180 -137 -109 -53 -182 -73 -300 -79 -68 -4 -119 -1 -179 12
-89 18 -201 61 -201 77 0 5 34 42 75 83 l75 73 72 -20 c170 -46 357 8 489 141
140 140 191 339 135 526 -34 111 -74 158 -556 640 -255 256 -467 465 -471 465
-5 0 -216 -209 -471 -465 -476 -479 -515 -523 -552 -636 -78 -238 36 -510 262
-626 132 -68 260 -78 405 -33 76 24 197 102 197 127 0 4 -116 124 -257 265
l-258 258 338 337 337 338 337 -338 338 -337 -188 -187 -187 -188 -75 75 -75
75 105 105 c58 58 105 111 105 119 0 18 -341 361 -360 361 -9 0 -96 -81 -195
-180 l-179 -181 257 -257 c141 -141 257 -262 257 -267 0 -13 -170 -180 -226
-223 -23 -18 -79 -50 -125 -71 -296 -141 -655 -64 -869 186 -71 83 -112 157
-147 263 -25 77 -28 98 -27 225 0 126 3 148 28 220 27 78 70 164 108 215 38
50 1103 1119 1117 1119 7 1 256 -243 553 -541z m-477 -791 c36 -35 65 -71 65
-79 0 -8 -32 -45 -70 -83 l-71 -68 -69 71 c-39 40 -70 77 -70 83 0 15 122 138
138 139 7 0 42 -29 77 -63z m-1625 -82 l0 -105 -104 0 -105 0 -3 95 c-2 53 -1
100 0 105 2 6 49 10 108 10 l104 0 0 -105z m3310 0 l0 -105 -105 0 -105 0 0
105 0 105 105 0 105 0 0 -105z"/>
</g>
</svg>
