<?xml version="1.0" encoding="iso-8859-1"?>
<!-- Generator: Adobe Illustrator 19.0.0, SVG Export Plug-In . SVG Version: 6.00 Build 0)  -->
<svg version="1.1" id="Layer_1" xmlns="http://www.w3.org/2000/svg" xmlns:xlink="http://www.w3.org/1999/xlink" x="0px" y="0px"
	 viewBox="0 0 511.999 511.999" style="enable-background:new 0 0 511.999 511.999;" xml:space="preserve">
<g>
	<polygon style="fill:#FCD577;" points="120.632,455.911 120.632,502.576 67.91,502.576 53.723,455.911 	"/>
	<polygon style="fill:#FCD577;" points="387.617,455.911 387.617,502.576 440.339,502.576 454.527,455.911 	"/>
	<rect x="9.409" y="8.724" style="fill:#FCD577;" width="493.427" height="447.189"/>
</g>
<g>
	<rect x="50.93" y="57.743" style="fill:#EAC36E;" width="410.376" height="153.616"/>
	<rect x="50.93" y="253.397" style="fill:#EAC36E;" width="410.376" height="153.616"/>
</g>
<g>
	<circle style="fill:#CFDCE5;" cx="131.827" cy="315.676" r="21.775"/>
	<circle style="fill:#CFDCE5;" cx="380.422" cy="315.676" r="21.775"/>
	<circle style="fill:#CFDCE5;" cx="131.827" cy="120.033" r="21.775"/>
	<circle style="fill:#CFDCE5;" cx="380.422" cy="120.033" r="21.775"/>
</g>
<path d="M355.946,49.021H50.809c-5.011,0-9.073,4.062-9.073,9.073v153.621c0,5.011,4.062,9.073,9.073,9.073h410.38
	c5.011,0,9.073-4.062,9.073-9.073V58.094c0-5.011-4.062-9.073-9.073-9.073h-72.582c-5.011,0-9.073,4.062-9.073,9.073
	s4.062,9.073,9.073,9.073h63.509v135.474H59.883V67.167h296.063c5.011,0,9.073-4.062,9.073-9.073S360.957,49.021,355.946,49.021z"/>
<path d="M41.736,407.364c0,5.011,4.062,9.073,9.073,9.073h410.38c5.011,0,9.073-4.062,9.073-9.073V253.743
	c0-5.011-4.062-9.073-9.073-9.073H50.809c-5.011,0-9.073,4.062-9.073,9.073V407.364z M59.883,262.816h392.233v135.474H59.883
	V262.816z"/>
<path d="M502.712,0H9.287C4.276,0,0.214,4.062,0.214,9.073v309.98c0,5.011,4.062,9.073,9.073,9.073s9.073-4.062,9.073-9.073V18.146
	h475.279v429.04H18.36v-97.889c0-5.011-4.062-9.073-9.073-9.073s-9.073,4.062-9.073,9.073V456.26c0,5.011,4.062,9.073,9.073,9.073
	h37.589l12.232,40.232c1.161,3.822,4.687,6.434,8.681,6.434h52.722c5.011,0,9.073-4.062,9.073-9.073v-37.592h248.839v37.592
	c0,5.011,4.062,9.073,9.073,9.073h52.722c3.995,0,7.519-2.612,8.681-6.434l12.232-40.232h41.582c5.011,0,9.073-4.062,9.073-9.073
	V9.073C511.785,4.062,507.723,0,502.712,0z M111.437,493.854H74.512l-8.67-28.519h45.594v28.519H111.437z M433.492,493.854h-36.923
	v-28.519h45.594L433.492,493.854z"/>
<path d="M131.702,285.183c-17.009,0-30.848,13.839-30.848,30.849c0,17.009,13.839,30.848,30.848,30.848s30.848-13.839,30.848-30.848
	C162.549,299.021,148.712,285.183,131.702,285.183z M131.702,328.733c-7.003,0-12.701-5.698-12.701-12.701
	c0-7.005,5.698-12.703,12.701-12.703s12.701,5.698,12.701,12.703C144.403,323.035,138.706,328.733,131.702,328.733z"/>
<path d="M380.296,285.183c-17.009,0-30.848,13.839-30.848,30.849c0,17.009,13.839,30.848,30.848,30.848s30.848-13.839,30.848-30.848
	C411.144,299.021,397.305,285.183,380.296,285.183z M380.296,328.733c-7.003,0-12.701-5.698-12.701-12.701
	c0-7.005,5.698-12.703,12.701-12.703s12.701,5.698,12.701,12.703C392.997,323.035,387.299,328.733,380.296,328.733z"/>
<path d="M100.854,120.381c0,17.01,13.839,30.849,30.848,30.849s30.848-13.838,30.848-30.849c0-17.009-13.838-30.848-30.848-30.848
	C114.692,89.533,100.854,103.372,100.854,120.381z M144.403,120.381c0,7.005-5.698,12.703-12.701,12.703S119,127.386,119,120.381
	c0-7.003,5.698-12.701,12.701-12.701S144.403,113.378,144.403,120.381z"/>
<path d="M349.448,120.381c0,17.01,13.839,30.849,30.848,30.849s30.848-13.838,30.848-30.849c0-17.009-13.839-30.848-30.848-30.848
	S349.448,103.372,349.448,120.381z M380.296,107.68c7.003,0,12.701,5.698,12.701,12.701c0,7.005-5.698,12.703-12.701,12.703
	s-12.701-5.698-12.701-12.703C367.595,113.378,373.293,107.68,380.296,107.68z"/>
<g>
</g>
<g>
</g>
<g>
</g>
<g>
</g>
<g>
</g>
<g>
</g>
<g>
</g>
<g>
</g>
<g>
</g>
<g>
</g>
<g>
</g>
<g>
</g>
<g>
</g>
<g>
</g>
<g>
</g>
</svg>
