<?xml version="1.0" encoding="iso-8859-1"?>
<!-- Generator: Adobe Illustrator 19.0.0, SVG Export Plug-In . SVG Version: 6.00 Build 0)  -->
<svg version="1.1" id="Layer_1" xmlns="http://www.w3.org/2000/svg" xmlns:xlink="http://www.w3.org/1999/xlink" x="0px" y="0px"
	 viewBox="0 0 330 330" style="enable-background:new 0 0 330 330;" xml:space="preserve">
<g>
	<g>
		<g>
			<path style="fill:#D7143A;" d="M314.999,0l-87.873,0.005l-39.42,0.003L142.282,0.01l-39.434,0.002l-87.85,0.005
				C6.715,0.018,0,6.732,0,15.017v87.845v39.424v45.43v39.411V315c0,8.284,6.716,15,15,15h87.873h39.4h45.441h39.41H315
				c8.284,0,15-6.716,15-15v-87.874v-39.399v-45.453V102.87V15c0-3.979-1.58-7.794-4.394-10.607C322.793,1.58,318.978,0,314.999,0z"
				/>
		</g>
	</g>
	
		<rect x="142.494" y="57.644" transform="matrix(0.7071 -0.7071 0.7071 0.7071 -8.3445 140.1425)" style="fill:#FFFFFF;" width="45.001" height="45"/>
	
		<rect x="227.343" y="142.504" transform="matrix(0.7071 0.7071 -0.7071 0.7071 189.8528 -128.3367)" style="fill:#FFFFFF;" width="44.999" height="45.001"/>
	
		<rect x="57.643" y="57.646" transform="matrix(0.7071 -0.7071 0.7071 0.7071 -33.1975 80.1428)" style="fill:#FFFFFF;" width="44.999" height="44.998"/>
	
		<rect x="57.645" y="142.505" transform="matrix(0.7071 0.7071 -0.7071 0.7071 140.1489 -8.3422)" style="fill:#FFFFFF;" width="44.999" height="44.998"/>
	<polygon style="fill:#FFFFFF;" points="180.903,233.942 164.993,218.032 133.173,249.852 164.993,281.673 196.814,249.852 	"/>
	
		<rect x="227.343" y="227.364" transform="matrix(-0.7071 0.7071 -0.7071 -0.7071 603.1871 249.8783)" style="fill:#FFFFFF;" width="44.999" height="45"/>
	
		<rect x="227.334" y="57.65" transform="matrix(-0.7071 -0.7071 0.7071 -0.7071 369.8203 313.4836)" style="fill:#FFFFFF;" width="45.001" height="44.999"/>
	
		<rect x="142.49" y="142.498" transform="matrix(-0.7071 -0.7071 0.7071 -0.7071 164.9835 398.3337)" style="fill:#FFFFFF;" width="45" height="45"/>
	<polygon style="fill:#FFFFFF;" points="48.329,249.846 80.147,281.665 96.054,265.76 111.958,249.852 80.14,218.033 	"/>
</g>
<g>
</g>
<g>
</g>
<g>
</g>
<g>
</g>
<g>
</g>
<g>
</g>
<g>
</g>
<g>
</g>
<g>
</g>
<g>
</g>
<g>
</g>
<g>
</g>
<g>
</g>
<g>
</g>
<g>
</g>
</svg>
